<?xml version="1.0" encoding="utf-8"?>
<!-- Generator: Adobe Illustrator 24.1.1, SVG Export Plug-In . SVG Version: 6.00 Build 0)  -->
<svg version="1.1" id="Layer_1" xmlns="http://www.w3.org/2000/svg" xmlns:xlink="http://www.w3.org/1999/xlink" x="0px" y="0px"
	 viewBox="0 0 512 512" style="enable-background:new 0 0 512 512;" xml:space="preserve">
<g>
	<path d="M422.5,75c-48.4-48.4-112.6-75-181-75c-79.2,0-152.9,36.5-201,97.5V64c0-7.1-5.7-12.8-12.8-12.8c-7.1,0-12.8,5.7-12.8,12.8
		v76.1c0,5.9,4,10.9,9.6,12.4c2.5,0.6,5,0.5,7.3-0.3l73-24.9c6.7-2.3,10.3-9.5,8-16.2c-2.3-6.7-9.5-10.3-16.2-8l-38.1,13
		C101.6,59.6,169,25.6,241.5,25.6c127,0,230.4,103.3,230.4,230.4S368.5,486.4,241.5,486.4c-84.9,0-162.6-46.5-202.9-121.3
		c-3.3-6.2-11.1-8.5-17.3-5.2c-6.2,3.3-8.5,11.1-5.2,17.3C60.8,460.4,147.2,512,241.5,512c68.4,0,132.6-26.6,181-75
		c48.4-48.3,75-112.6,75-181S470.9,123.4,422.5,75L422.5,75z"/>
	<path d="M241.5,268.8l-6.2-1.6l-115.2-64c-6.2-3.4-8.4-11.2-5-17.4c3.4-6.2,11.2-8.4,17.4-5L241,241.1l134.4-85.5
		c6-3.8,13.9-2,17.7,3.9c3.8,6,2,13.9-3.9,17.7l-140.8,89.6C246.3,268.1,243.9,268.7,241.5,268.8L241.5,268.8z"/>
</g>
</svg>
