<svg xmlns="http://www.w3.org/2000/svg"  viewBox="0 0 48 48" width="48px" height="48px" baseProfile="basic"><path fill="none" stroke="#324561" stroke-linecap="round" stroke-linejoin="round" stroke-miterlimit="10" stroke-width="2" d="M27,43	V31c0-0.55,0.45-1,1-1h6c0.55,0,1,0.45,1,1v12"/><path fill="none" stroke="#000" stroke-linecap="round" stroke-linejoin="round" stroke-miterlimit="10" stroke-width="2" d="M20,33	h-6c-0.552,0-1-0.448-1-1v-6c0-0.552,0.448-1,1-1h6c0.552,0,1,0.448,1,1v6C21,32.552,20.552,33,20,33z"/><path fill="none" stroke="#000" stroke-linecap="round" stroke-linejoin="round" stroke-miterlimit="10" stroke-width="2" d="M42.77,22H41v18c0,1.66-1.34,3-3,3h-3V31c0-0.55-0.45-1-1-1h-6c-0.55,0-1,0.45-1,1v12H10c-1.66,0-3-1.34-3-3V22H5.23	c-1.12,0-1.63-1.38-0.79-2.11L21.97,4.75c1.17-1.01,2.89-1.01,4.06,0l17.53,15.14C44.4,20.62,43.89,22,42.77,22z"/></svg>